<svg xmlns="http://www.w3.org/2000/svg" viewBox="0 0 200 55.45"><defs><style>.cls-1{fill:#46a3f7;}.cls-2{fill:#47a3f7;}</style></defs><g id="Layer_2" data-name="Layer 2"><g id="Layer_1-2" data-name="Layer 1"><path class="cls-1" d="M164.08,35.33l6.38-12.81c3.42-6.87,6.88-13.73,10.21-20.65A2.85,2.85,0,0,1,183.75,0c4.53.1,9.06.21,13.58,0,2.61-.14,2.88,1,2.57,3-.94,6.26-1.79,12.54-2.67,18.81-1.46,10.32-3,20.63-4.31,31-.24,1.91-.84,2.58-2.77,2.45a55.8,55.8,0,0,0-7.54,0c-2.09.15-2.6-.61-2.31-2.55,1-6.43,1.84-12.87,2.75-19.31q1.14-8.05,2.27-16.1a1.8,1.8,0,0,0-.44-1.47c-2,4-3.93,8-5.88,12.05-4.11,8.49-8.23,17-12.29,25.49-.6,1.26-1.25,2-2.8,1.88-2.5-.19-5.68.75-7.33-.47-1.81-1.33-1.37-4.75-1.87-7.27-2.08-10.63-4.06-21.28-6.09-31.92a10.3,10.3,0,0,0-.4-1.14c-1.09,7.68-2.11,14.92-3.14,22.15-.8,5.62-1.66,11.22-2.38,16.84-.17,1.35-.58,1.85-2,1.8-3-.09-6,0-9.06,0-1,0-1.76-.07-1.55-1.48q3.72-26,7.34-52c.21-1.49.8-1.73,2.08-1.71q7.54.08,15.09,0c1.3,0,1.84.31,2.13,1.71,2.24,10.86,4.61,21.69,6.94,32.52A8.72,8.72,0,0,0,164.08,35.33Z"/><path class="cls-2" d="M62.44,22.64c2.72,0,5.44.05,8.16,0,1.48,0,2.22.26,2,2-1.2,8.27-2.32,16.55-3.45,24.83-.11.86-.69,1.15-1.39,1.45-9.47,4-19.25,5.75-29.47,3.65A21.17,21.17,0,0,1,21.1,33.76C20.83,17.63,29.54,5.44,44.44,1.32a38.3,38.3,0,0,1,22.62.94,4.91,4.91,0,0,1,.68.22C70,3.56,72.86,4.62,73.47,6.84c.42,1.57-2.54,2.87-3.88,4.39-.27.29-.57.56-.87.83-1.29,1.18-2.4,2.85-3.93,3.43-1.88.72-2.73-1.69-4.19-2.51-7-4-20.08-2.18-25.05,8.92-2.31,5.15-3,10.46-.34,15.68,2.53,5,8.1,7.49,14.23,6.8.8-.09,1.59-.22,2.38-.34,6.19-1,7.68-2.72,7.76-9,0-1.22-.46-1.51-1.54-1.48-2,0-4,0-6,0-1.26,0-1.76-.35-1.54-1.66.44-2.51.86-5,1.16-7.55.16-1.38.7-1.87,2.14-1.82C56.67,22.71,59.56,22.64,62.44,22.64Z"/><path class="cls-1" d="M134.27.08c-4,5.05-7.63,9.61-11.26,14.16-4.27,5.36-8.52,10.73-12.86,16-2.2,2.69-1.66,6-2.22,9-.88,4.75-1.47,9.55-2,14.35-.16,1.39-.76,1.6-1.93,1.58-3,0-6-.06-9,0-1.31,0-1.8-.34-1.6-1.72,1-6.34,1.81-12.7,2.78-19a7.37,7.37,0,0,0-.72-4.8C90.7,20.77,86.11,11.78,81.49,2.8c-.4-.8-.76-1.62-1.28-2.72,5,0,9.65,0,14.31,0,1.26,0,1.47.85,1.82,1.68,2.33,5.44,4.72,10.86,7,16.34.79,1.93,1.39,1.83,2.52.28,4-5.54,8.15-11,12.17-16.56A3.72,3.72,0,0,1,121.52,0C125.54.16,129.56.08,134.27.08Z"/><path class="cls-2" d="M5.39,55.45c-5.89,0-5.82,0-5-5.8Q2.53,34.91,4.46,20.12c.18-1.41.67-2,2.15-1.93a60.4,60.4,0,0,0,7.12,0c2.21-.18,2.89.5,2.55,2.71-1,6.2-1.79,12.42-2.66,18.62-.59,4.2-1.24,8.38-1.76,12.58-.42,3.36-.36,3.37-3.77,3.37Z"/><path class="cls-2" d="M19.14,6a8.15,8.15,0,0,1-8,7.7A5.81,5.81,0,0,1,5.45,7.6,8.13,8.13,0,0,1,13.28,0,5.8,5.8,0,0,1,19.14,6Z"/></g></g></svg>